<?xml version="1.0" encoding="UTF-8" standalone="no"?>
<svg width="42px" height="64px" viewBox="0 0 42 64" version="1.1" xmlns="http://www.w3.org/2000/svg" xmlns:xlink="http://www.w3.org/1999/xlink">
    <!-- Generator: Sketch 41.1 (35376) - http://www.bohemiancoding.com/sketch -->
    <title>Group 14</title>
    <desc>Created with Sketch.</desc>
    <defs></defs>
    <g id="Page-1" stroke="none" stroke-width="1" fill="none" fill-rule="evenodd">
        <g id="Home-Desktop-1440" transform="translate(-1182.000000, -303.000000)" stroke="#000000">
            <g id="Group-14" transform="translate(1182.000000, 304.000000)">
                <g id="Group-12">
                    <g id="иконка_хол-оборудование" transform="translate(0.500000, 0.000000)">
                        <g id="Layer_1">
                            <g id="Group">
                                <path d="M40.844,60.956 C40.844,61.367 40.511,61.699 40.101,61.699 L1.587,61.699 C1.176,61.699 0.844,61.366 0.844,60.956 L0.844,0.743 C0.844,0.333 1.177,0 1.587,0 L40.101,0 C40.512,0 40.844,0.333 40.844,0.743 L40.844,60.956 Z" id="Shape"></path>
                                <path d="M24.668,55.671 L37.165,55.671" id="Shape"></path>
                                <path d="M24.668,52.67 L37.165,52.67" id="Shape"></path>
                                <path d="M24.668,49.67 L37.165,49.67" id="Shape"></path>
                                <path d="M4.666,55.671 L17.163,55.671" id="Shape"></path>
                                <path d="M4.666,52.67 L17.163,52.67" id="Shape"></path>
                                <path d="M4.666,49.67 L17.163,49.67" id="Shape"></path>
                                <path d="M22.001,43.669 L41.001,43.669" id="Shape"></path>
                                <path d="M0.999,43.669 L19.999,43.669" id="Shape"></path>
                                <path d="M22.001,33.668 L41.001,33.668" id="Shape"></path>
                                <path d="M0.999,33.668 L19.999,33.668" id="Shape"></path>
                                <path d="M22.001,23.667 L41.001,23.667" id="Shape"></path>
                                <path d="M0.999,23.667 L19.999,23.667" id="Shape"></path>
                                <path d="M0.999,12.666 L40.999,12.666" id="Shape"></path>
                                <path d="M22.999,12.666 L22.999,43.916" id="Shape"></path>
                                <path d="M18.999,12.666 L18.999,43.916" id="Shape"></path>
                            </g>
                        </g>
                    </g>
                </g>
            </g>
        </g>
    </g>
</svg>