<?xml version="1.0" encoding="UTF-8" standalone="no"?>
<svg width="42px" height="63px" viewBox="0 0 42 63" version="1.1" xmlns="http://www.w3.org/2000/svg" xmlns:xlink="http://www.w3.org/1999/xlink">
    <!-- Generator: Sketch 41.1 (35376) - http://www.bohemiancoding.com/sketch -->
    <title>Group 9</title>
    <desc>Created with Sketch.</desc>
    <defs></defs>
    <g id="Page-1" stroke="none" stroke-width="1" fill="none" fill-rule="evenodd">
        <g id="Home-Desktop-1440" transform="translate(-689.000000, -304.000000)" stroke="#0084FF">
            <g id="Group-9" transform="translate(690.000000, 304.000000)">
                <g id="иконка_посуд-машина">
                    <g id="icone_dishwashers">
                        <path d="M30.334,13.37 L9.821,13.37 C9.41,13.37 9.078,13.037 9.078,12.627 L9.078,10.42 C9.078,10.009 9.411,9.677 9.821,9.677 L30.333,9.677 C30.744,9.677 31.076,10.01 31.076,10.42 L31.076,12.627 C31.077,13.038 30.744,13.37 30.334,13.37 Z" id="Shape"></path>
                        <path d="M40.078,61.632 C40.078,62.043 39.745,62.375 39.335,62.375 L0.82,62.375 C0.409,62.375 0.077,62.042 0.077,61.632 L0.077,58.425 C0.077,58.014 0.41,57.682 0.82,57.682 L39.334,57.682 C39.745,57.682 40.077,58.015 40.077,58.425 L40.077,61.632 L40.078,61.632 Z" id="Shape"></path>
                        <path d="M39.335,54.374 L0.82,54.374 C0.409,54.374 0.077,54.041 0.077,53.631 L0.077,1.419 C0.077,1.008 0.41,0.676 0.82,0.676 L39.334,0.676 C39.745,0.676 40.077,1.009 40.077,1.419 L40.077,53.631 C40.078,54.042 39.745,54.374 39.335,54.374 Z" id="Shape"></path>
                    </g>
                </g>
            </g>
        </g>
    </g>
</svg>