<?xml version="1.0" encoding="UTF-8" standalone="no"?>
<svg width="42px" height="64px" viewBox="0 0 42 64" version="1.1" xmlns="http://www.w3.org/2000/svg" xmlns:xlink="http://www.w3.org/1999/xlink">
    <!-- Generator: Sketch 41.1 (35376) - http://www.bohemiancoding.com/sketch -->
    <title>Group 15</title>
    <desc>Created with Sketch.</desc>
    <defs></defs>
    <g id="Page-1" stroke="none" stroke-width="1" fill="none" fill-rule="evenodd">
        <g id="Home-Desktop-1440" transform="translate(-426.000000, -303.000000)" stroke="#000000">
            <g id="Group-15" transform="translate(426.000000, 304.000000)">
                <g id="Group-7">
                    <g id="icone_washing-machines" transform="translate(0.500000, 0.000000)">
                        <g id="Layer_1">
                            <path d="M39.603,62.032 L1.088,62.032 C0.677,62.032 0.345,61.699 0.345,61.289 L0.345,1.077 C0.345,0.666 0.678,0.334 1.088,0.334 L39.602,0.334 C40.013,0.334 40.345,0.667 40.345,1.077 L40.345,61.289 C40.346,61.7 40.013,62.032 39.603,62.032 Z" id="Shape"></path>
                            <path d="M24.625,7.25 L28.05,7.25" id="Shape"></path>
                            <path d="M30.626,7.25 L34.05,7.25" id="Shape"></path>
                            <path d="M6.623,7.25 L15.048,7.25" id="Shape"></path>
                            <circle id="Oval" cx="20.25" cy="34" r="10.167"></circle>
                            <circle id="Oval" cx="20.25" cy="34" r="13.333"></circle>
                        </g>
                    </g>
                </g>
            </g>
        </g>
    </g>
</svg>