<?xml version="1.0" encoding="UTF-8" standalone="no"?>
<svg width="30px" height="64px" viewBox="0 0 30 64" version="1.1" xmlns="http://www.w3.org/2000/svg" xmlns:xlink="http://www.w3.org/1999/xlink">
    <!-- Generator: Sketch 41.1 (35376) - http://www.bohemiancoding.com/sketch -->
    <title>иконка_холодильник4</title>
    <desc>Created with Sketch.</desc>
    <defs></defs>
    <g id="Page-1" stroke="none" stroke-width="1" fill="none" fill-rule="evenodd">
        <g id="Washing-machines-1440" transform="translate(-202.000000, -303.000000)" stroke="#000000">
            <g id="иконка_холодильник4" transform="translate(203.000000, 304.000000)">
                <g id="Layer_1">
                    <path d="M28.338,61.331 C28.338,61.742 28.005,62.074 27.595,62.074 L1.082,62.074 C0.671,62.074 0.339,61.741 0.339,61.331 L0.339,1.118 C0.339,0.707 0.672,0.375 1.082,0.375 L27.595,0.375 C28.006,0.375 28.338,0.708 28.338,1.118 L28.338,61.331 Z" id="Shape"></path>
                    <path d="M0.339,37.764 L28.338,37.764" id="Shape"></path>
                    <path d="M0.339,41.764 L28.338,41.764" id="Shape"></path>
                    <path d="M10.25,7.313 L18.675,7.313" id="Shape"></path>
                    <path d="M6.534,47.714 L6.534,55.395" id="Shape"></path>
                    <path d="M6.534,15.49 L6.534,31.835" id="Shape"></path>
                </g>
            </g>
        </g>
    </g>
</svg>