<?xml version="1.0" encoding="UTF-8" standalone="no"?>
<svg width="110px" height="63px" viewBox="0 0 110 63" version="1.1" xmlns="http://www.w3.org/2000/svg" xmlns:xlink="http://www.w3.org/1999/xlink">
    <!-- Generator: Sketch 46.2 (44496) - http://www.bohemiancoding.com/sketch -->
    <title>Group 38</title>
    <desc>Created with Sketch.</desc>
    <defs></defs>
    <g id="Page-1" stroke="none" stroke-width="1" fill="none" fill-rule="evenodd">
        <g id="Group-38" stroke="#0084FF">
            <g id="Group-17">
                <path d="M39.2579978,62.5 C39.3729119,62.5 39.5004572,62.3503602 39.4999978,62.1282916 L39.4999978,0.871708444 C39.4999978,0.650199287 39.3720945,0.5 39.2569978,0.5 L0.742999958,0.5 C0.627973271,0.5 0.5,0.650002303 0.5,0.871708444 L0.5,62.1282916 C0.5,62.3498007 0.627903256,62.5 0.742999958,62.5 L39.2579978,62.5 Z" id="Shape-Copy"></path>
                <circle id="Oval-4-Copy" cx="20" cy="18" r="10.5"></circle>
                <circle id="Oval-4-Copy-2" cx="20" cy="18" r="6.5"></circle>
                <circle id="Oval-4-Copy-3" cx="20" cy="44" r="6.5"></circle>
                <circle id="Oval-4-Copy-4" cx="33.5" cy="55.5" r="2"></circle>
                <circle id="Oval-4-Copy-5" cx="20" cy="44" r="10.5"></circle>
            </g>
            <g id="Group-18" transform="translate(47.000000, 0.000000)">
                <g id="Group-11-Copy">
                    <path d="M62.5,61.423674 L62.5,1.57632598 C62.5,0.94815968 62.2872206,0.5 62.2508882,0.5 L0.749111801,0.5 C0.71282847,0.5 0.5,0.947430218 0.5,1.57632598 L0.5,61.423674 C0.5,62.0518403 0.7127794,62.5 0.749111801,62.5 L62.2508882,62.5 C62.2871715,62.5 62.5,62.0525698 62.5,61.423674 Z" id="Shape"></path>
                    <path d="M56.5,56.2994107 L56.5,29.7005893 C56.5,29.5749769 56.435161,29.5 56.3935762,29.5 L6.60642384,29.5 C6.56485465,29.5 6.5,29.5748556 6.5,29.7005893 L6.5,56.2994107 C6.5,56.4250231 6.56483898,56.5 6.60642384,56.5 L56.3935762,56.5 C56.4351453,56.5 56.5,56.4251444 56.5,56.2994107 Z" id="Shape"></path>
                    <path d="M52.5,52.4995791 L52.5,33.5004209 C52.5,33.5025185 52.4974292,33.5 52.4887015,33.5 L10.5112985,33.5 C10.5025805,33.5 10.5,33.5025233 10.5,33.5004209 L10.5,52.4995791 C10.5,52.4974815 10.5025708,52.5 10.5112985,52.5 L52.4887015,52.5 C52.4974195,52.5 52.5,52.4974767 52.5,52.4995791 Z" id="Shape"></path>
                    <path d="M6,21.5 L56.995,21.5" id="Shape"></path>
                    <path d="M6,24.5 L56.995,24.5" id="Shape"></path>
                    <circle id="Oval" cx="23.5" cy="11.5" r="3"></circle>
                    <circle id="Oval" cx="9.5" cy="11.5" r="3"></circle>
                    <circle id="Oval" cx="38.5" cy="11.5" r="3"></circle>
                    <circle id="Oval" cx="52.5" cy="11.5" r="3"></circle>
                </g>
            </g>
        </g>
    </g>
</svg>